<svg xmlns="http://www.w3.org/2000/svg" width="96.276" height="136.064" viewBox="0 0 96.276 136.064">
  <g id="Group_4659" data-name="Group 4659" transform="translate(-1499.545 -430.518)">
    <g id="Group_266" data-name="Group 266" transform="translate(1502.045 433.018)">
      <path id="Path_240" data-name="Path 240" d="M7.848,0S-2.571,0-2.571,11.359V119.7s0,11.359,10.419,11.359H78.29s10.415,0,10.415-11.359V25.855L64.929,0Z" transform="translate(2.571)" fill="none" stroke="#09164f" stroke-width="5"/>
    </g>
    <path id="Path_242" data-name="Path 242" d="M9.643-15.008h18.82V-30.189H9.643Z" transform="translate(1527.864 475.545)" fill="none" stroke="#01fdff" stroke-width="5"/>
    <path id="Path_243" data-name="Path 243" d="M0,0H58.45" transform="translate(1518.867 474.305)" fill="none" stroke="#09164f" stroke-linecap="round" stroke-width="5"/>
    <path id="Path_244" data-name="Path 244" d="M0,0H27.055" transform="translate(1518.867 549.808)" fill="none" stroke="#01fdff" stroke-linecap="round" stroke-width="5"/>
    <g id="Group_270" data-name="Group 270" transform="translate(1518.243 514.668)">
      <path id="Path_245" data-name="Path 245" d="M2.644,0A3.437,3.437,0,0,0-.866,3.51V18.3a3.434,3.434,0,0,0,3.51,3.505H55.323s3.51,0,3.51-3.505V3.51A3.437,3.437,0,0,0,55.323,0Z" transform="translate(0.866)" fill="none" stroke="#09164f" stroke-width="5"/>
    </g>
    <g id="Group_271" data-name="Group 271" transform="translate(1518.243 485.331)">
      <path id="Path_246" data-name="Path 246" d="M2.644,0A3.437,3.437,0,0,0-.866,3.51V18.3a3.434,3.434,0,0,0,3.51,3.505H55.323s3.51,0,3.51-3.505V3.51A3.437,3.437,0,0,0,55.323,0Z" transform="translate(0.866)" fill="none" stroke="#09164f" stroke-width="5"/>
    </g>
  </g>
</svg>
